<?xml version="1.0" encoding="UTF-8"?>
<level>
  <owner>stolbitsa</owner>
  <repo>wellerman</repo>
  <version>v1.0.3</version>
  <next number="1" owner="stolbitsa" repo="inca-roads-1"/>
  <readme>
    <ru>39003569c948ec310d555dc50c97c9e8968ece2b794621910c4641a8ab8939c0</ru>
    <en>8b88e38db15d08100cd898a1334ea7431729933cc58f9f90724da17f538a46cd</en>
  </readme>
  <license>b1b99f5538d1fd3702219bff50c665196dfa42f6ee755c37fe41a6178d6bc6e5</license>
  <exercise number="1">
    <scale>minor</scale>
    <bpm>96</bpm>
    <lowestNote>87</lowestNote>
    <tonalities>1</tonalities>
    <video name="15-wellerman-1.mp4" size="1436988" type="video/mp4" volume="0.741">1bf32a32397a41d99408d4e56f5ac1499ee61c3f4eebe106e02a1b2f7580619f</video>
    <notes>
      <note number="1" values="87" ticks="336" durationTicks="48" ppq="96" velocity="0.832"/>
      <note number="2" values="1" ticks="385" durationTicks="34" ppq="96" velocity="0.884"/>
      <note number="3" values="1" ticks="431" durationTicks="15" ppq="96" velocity="0.717"/>
      <note number="4" values="1" ticks="455" durationTicks="13" ppq="96" velocity="0.759"/>
      <note number="5" values="1" ticks="482" durationTicks="39" ppq="96" velocity="0.719"/>
      <note number="6" values="3" ticks="528" durationTicks="45" ppq="96" velocity="0.819"/>
      <note number="7" values="5" ticks="576" durationTicks="35" ppq="96" velocity="0.844"/>
      <note number="8" values="5" ticks="624" durationTicks="38" ppq="96" velocity="0.852"/>
      <note number="9" values="5" ticks="673" durationTicks="46" ppq="96" velocity="0.844"/>
    </notes>
  </exercise>
  <exercise number="2">
    <scale>minor</scale>
    <bpm>96</bpm>
    <lowestNote>1</lowestNote>
    <tonalities>1</tonalities>
    <video name="15-wellerman-2.mp4" size="986602" type="video/mp4" volume="0.681">f3a2528430a7cfb68971a2c05b68a8977a81fa081e2168a9e28df785107b26d9</video>
    <notes>
      <note number="1" values="5" ticks="95" durationTicks="46" ppq="96" velocity="0.832"/>
      <note number="2" values="6" ticks="144" durationTicks="45" ppq="96" velocity="0.847"/>
      <note number="3" values="4" ticks="192" durationTicks="14" ppq="96" velocity="0.802"/>
      <note number="4" values="4" ticks="214" durationTicks="13" ppq="96" velocity="0.814"/>
      <note number="5" values="4" ticks="240" durationTicks="37" ppq="96" velocity="0.837"/>
      <note number="6" values="4" ticks="288" durationTicks="19" ppq="96" velocity="0.757"/>
      <note number="7" values="6" ticks="312" durationTicks="13" ppq="96" velocity="0.762"/>
      <note number="8" values="6" ticks="335" durationTicks="15" ppq="96" velocity="0.759"/>
      <note number="9" values="18" ticks="358" durationTicks="23" ppq="96" velocity="0.812"/>
      <note number="10" values="5" ticks="382" durationTicks="38" ppq="96" velocity="0.797"/>
      <note number="11" values="5" ticks="432" durationTicks="47" ppq="96" velocity="0.769"/>
    </notes>
  </exercise>
  <exercise number="3">
    <scale>minor</scale>
    <bpm>96</bpm>
    <lowestNote>1</lowestNote>
    <tonalities>1</tonalities>
    <video name="15-wellerman-3.mp4" size="541359" type="video/mp4" volume="0.711">6594e16c686127bae5152707dcfd30f252787c4ff98a1674a4d1a37592cf2360</video>
    <notes>
      <note number="1" values="5" ticks="105" durationTicks="21" ppq="96" velocity="0.832"/>
      <note number="2" values="1" ticks="127" durationTicks="38" ppq="96" velocity="0.847"/>
      <note number="3" values="1" ticks="176" durationTicks="41" ppq="96" velocity="0.802"/>
      <note number="4" values="1" ticks="224" durationTicks="44" ppq="96" velocity="0.814"/>
      <note number="5" values="3" ticks="273" durationTicks="46" ppq="96" velocity="0.837"/>
      <note number="6" values="5" ticks="319" durationTicks="33" ppq="96" velocity="0.757"/>
      <note number="7" values="5" ticks="367" durationTicks="35" ppq="96" velocity="0.762"/>
      <note number="8" values="5" ticks="416" durationTicks="41" ppq="96" velocity="0.759"/>
    </notes>
  </exercise>
  <exercise number="4">
    <scale>minor</scale>
    <bpm>96</bpm>
    <lowestNote>1</lowestNote>
    <tonalities>1</tonalities>
    <video name="15-wellerman-4.mp4" size="1000158" type="video/mp4" volume="0.723">103262f40041b943cbdf16dbae6e0a38ad5801224e06ed868814f54110cefad7</video>
    <notes>
      <note number="1" values="5" ticks="85" durationTicks="35" ppq="96" velocity="0.832"/>
      <note number="2" values="5" ticks="133" durationTicks="45" ppq="96" velocity="0.847"/>
      <note number="3" values="4" ticks="181" durationTicks="48" ppq="96" velocity="0.802"/>
      <note number="4" values="3" ticks="230" durationTicks="12" ppq="96" velocity="0.814"/>
      <note number="5" values="3" ticks="254" durationTicks="22" ppq="96" velocity="0.837"/>
      <note number="6" values="2" ticks="278" durationTicks="42" ppq="96" velocity="0.757"/>
      <note number="7" values="1" ticks="327" durationTicks="117" ppq="96" velocity="0.812"/>
    </notes>
  </exercise>
  <exercise number="5">
    <scale>minor</scale>
    <bpm>96</bpm>
    <lowestNote>1</lowestNote>
    <tonalities>1</tonalities>
    <video name="15-wellerman-5.mp4" size="1465349" type="video/mp4" volume="0.731">deee03a46dbb210b3a67cb28db1b8fc2eb5af62d716499e2ad39b7d36f29f7a2</video>
    <notes>
      <note number="1" values="18" ticks="122" durationTicks="84" ppq="96" velocity="0.832"/>
      <note number="2" values="18" ticks="218" durationTicks="71" ppq="96" velocity="0.847"/>
      <note number="3" values="6" ticks="290" durationTicks="24" ppq="96" velocity="0.802"/>
      <note number="4" values="7" ticks="315" durationTicks="12" ppq="96" velocity="0.814"/>
      <note number="5" values="7" ticks="339" durationTicks="22" ppq="96" velocity="0.837"/>
      <note number="6" values="5" ticks="362" durationTicks="40" ppq="96" velocity="0.757"/>
      <note number="7" values="5" ticks="411" durationTicks="69" ppq="96" velocity="0.812"/>
    </notes>
  </exercise>
</level>
